# xmcd
#
# Track frame offsets:
#	150
#	19825
#	40775
#	61400
#	80050
#	97587
#	117037
#	136330
#	153875
#	171975
#
# Disc length: 2593 seconds
#
# Revision: 8
# Processed by: cddbd v1.5.2PL0 Copyright (c) Steve Scherf et al.
# Submitted via: EZCDAudioConverter 8.0.2.1
#
DISCID=730a1f0a
DTITLE=张学友 - 偷心
DYEAR=1994
DGENRE=Chinese Pop
TTITLE0=张学友 - 偷心
TTITLE1=张学友 - 别问
TTITLE2=张学友 - 你冷得像风
TTITLE3=张学友 - 我不在乎等多久
TTITLE4=张学友 - 多爱一分钟
TTITLE5=张学友 - 你知不知道
TTITLE6=张学友 - 心碎了无痕
TTITLE7=张学友 - 我希望你相信
TTITLE8=张学友、王靖雯合唱 - 爱，一次给不完
TTITLE9=张学友 - 最怕
EXTD=
EXTT0=
EXTT1=
EXTT2=
EXTT3=
EXTT4=
EXTT5=
EXTT6=
EXTT7=
EXTT8=
EXTT9=
PLAYORDER=
